<svg width="70" height="70" viewBox="0 0 70 70" fill="none" xmlns="http://www.w3.org/2000/svg">
    <g clip-path="url(#clip0_1001_35)">
        <path d="M34.8988 0.202316C15.6286 0.202316 0 15.8309 0 35.1012C0 54.3714 15.6286 70 34.8988 70C54.1691 70 69.7977 54.3714 69.7977 35.1012C69.7977 15.8309 54.1691 0.202316 34.8988 0.202316ZM28.2731 44.0535C26.25 44.0535 24.6315 43.6488 22.7095 43.1936L17.146 46.026L18.7139 41.1199C14.7182 38.2876 12.2905 34.5954 12.2905 30.1951C12.2905 22.4567 19.5231 16.3873 28.2731 16.3873C36.1127 16.3873 43.0419 21.2428 44.4075 27.7673C43.9017 27.7168 43.396 27.6662 42.8902 27.6662C35.3035 27.7673 29.3353 33.4827 29.3353 40.5636C29.3353 41.7269 29.5376 42.8396 29.841 43.9523C29.3353 44.0029 28.7789 44.0535 28.2731 44.0535ZM51.9436 49.7182L53.1575 53.7645L48.8078 51.3367C47.2399 51.7413 45.6214 52.146 44.0029 52.146C36.3656 52.146 30.3468 46.8858 30.3468 40.3613C30.2962 33.8873 36.315 28.6272 43.9017 28.6272C51.1344 28.6272 57.5072 33.9379 57.5072 40.4119C57.5072 44.0535 55.1301 47.2905 51.9436 49.7182Z" fill="#28C445"/>
        <path fill-rule="evenodd" clip-rule="evenodd" d="M22.9448 43.2494C24.7651 43.6814 26.3331 44.0535 28.2731 44.0535C28.7789 44.0535 29.3353 44.0029 29.841 43.9523C29.5376 42.8396 29.3353 41.7269 29.3353 40.5636C29.3353 33.4827 35.3035 27.7673 42.8902 27.6662C43.396 27.6662 43.9017 27.7168 44.4075 27.7673C43.0419 21.2428 36.1127 16.3873 28.2731 16.3873C19.5231 16.3873 12.2905 22.4567 12.2905 30.1951C12.2905 34.5954 14.7182 38.2876 18.7139 41.1199L17.146 46.026L22.7095 43.1936C22.7884 43.2123 22.8668 43.2309 22.9448 43.2494Z" fill="white"/>
        <path fill-rule="evenodd" clip-rule="evenodd" d="M53.1575 53.7645L51.9436 49.7182C55.1301 47.2905 57.5072 44.0535 57.5072 40.4119C57.5072 33.9379 51.1344 28.6272 43.9017 28.6272C36.315 28.6272 30.2962 33.8873 30.3468 40.3613C30.3468 46.8858 36.3656 52.146 44.0029 52.146C45.6214 52.146 47.2399 51.7413 48.8078 51.3367L53.1575 53.7645Z" fill="white"/>
        <path d="M22.4277 23C21.2139 23 20 23.8092 20 25.0231C20 26.237 21.2139 27.0462 22.4277 27.0462C23.6416 27.0462 24.4509 26.237 24.4509 25.0231C24.4509 23.7587 23.6416 23 22.4277 23ZM38.8656 34.7341C38.0564 34.7341 37.2977 35.5939 37.2977 36.3526C37.2977 37.2124 38.1069 37.9711 38.8656 37.9711C40.0795 37.9711 40.8887 37.1618 40.8887 36.3526C40.8887 35.5434 40.0795 34.7341 38.8656 34.7341ZM33.6561 27.0462C34.8699 27.0462 35.6792 26.1864 35.6792 25.0231C35.6792 23.8092 34.8699 23 33.6561 23C32.4422 23 31.2283 23.8092 31.2283 25.0231C31.2283 26.237 32.4422 27.0462 33.6561 27.0462ZM47.6662 34.7341C46.8569 34.7341 46.0983 35.5939 46.0983 36.3526C46.0983 37.2124 46.9075 37.9711 47.6662 37.9711C48.8801 37.9711 49.6893 37.1618 49.6893 36.3526C49.6893 35.5434 48.8801 34.7341 47.6662 34.7341Z" fill="#28C445"/>
    </g>
    <defs>
        <clipPath id="clip0_1001_35">
            <rect width="70" height="70" fill="white"/>
        </clipPath>
    </defs>
</svg>
